#!OML:ASF F:\VICON\USERDATA\INSTALL\rory3\rory3.ASF
:FULLY-SPECIFIED
:DEGREES
530
root -0.00310068 17.9234 -0.796399 1.52301 -7.60378 3.61894
lowerback -0.455393 -1.74112 -5.04768
upperback 0.140719 -2.30776 2.7942
thorax 0.716733 -1.18476 5.69935
lowerneck -25.7465 1.9189 -9.15694
upperneck 1.94037 4.78133 5.14328
head 4.19487 2.6017 3.57857
rclavicle -4.17448e-015 2.38542e-015
rhumerus -33.5961 -6.37074 -75.2494
rradius 34.1956
rwrist 19.6439
rhand -21.7163 6.5597
rfingers 7.12502
rthumb 4.68269 -23.3686
lclavicle -4.17448e-015 2.38542e-015
lhumerus 54.3496 6.24431 55.99
lradius 97.2288
lwrist -4.12885
lhand -32.5828 7.81635
lfingers 7.12502
lthumb -5.81143 37.7167
rfemur -8.08355 6.65039 12.3699
rtibia 27.7121
rfoot -18.3182 -2.9835
rtoes 3.1752
lfemur 0.973733 -1.97814 -24.2293
ltibia 11.9593
lfoot -10.4404 3.31125
ltoes -12.1994
531
root -0.0023735 17.9239 -0.796006 1.55321 -7.6079 3.61954
lowerback -0.478843 -1.75663 -5.06232
upperback 0.123629 -2.32763 2.81361
thorax 0.716393 -1.19444 5.72719
lowerneck -25.7578 1.89281 -9.24153
upperneck 1.81599 4.76968 5.19257
head 4.15465 2.60106 3.60449
rclavicle -2.62893e-014 3.18055e-015
rhumerus -33.5631 -6.41376 -75.1842
rradius 34.1756
rwrist 19.638
rhand -21.7139 6.5128
rfingers 7.12502
rthumb 4.68502 -23.4154
lclavicle -2.62893e-014 3.18055e-015
lhumerus 54.5417 6.47443 55.943
lradius 97.1624
lwrist -4.06103
lhand -32.2709 8.19201
lfingers 7.12502
lthumb -5.51029 38.1004
rfemur -8.10509 6.64807 12.364
rtibia 27.6875
rfoot -18.301 -3.00083
rtoes 3.11341
lfemur 0.932727 -1.95222 -24.2271
ltibia 11.9754
lfoot -10.4358 3.30622
ltoes -12.0664
532
root -0.0012899 17.9251 -0.794349 1.60188 -7.61513 3.57932
lowerback -0.512483 -1.75332 -5.02884
upperback 0.100316 -2.32222 2.83073
thorax 0.709832 -1.19085 5.72552
lowerneck -25.6986 1.88338 -9.3293
upperneck 1.603 4.77096 5.29308
head 4.07464 2.61182 3.64549
rclavicle -3.51849e-014 2.06736e-014
rhumerus -33.5775 -6.40644 -75.1484
rradius 34.2076
rwrist 19.5201
rhand -21.71 6.25658
rfingers 7.12502
rthumb 4.68881 -23.6715
lclavicle -3.51849e-014 2.06736e-014
lhumerus 54.7722 6.65557 55.8929
lradius 97.0676
lwrist -4.12544
lhand -32.5057 7.71268
lfingers 7.12502
lthumb -5.73696 37.615
rfemur -8.14515 6.63452 12.3965
rtibia 27.6623
rfoot -18.3122 -2.9636
rtoes 3.37143
lfemur 0.885675 -1.89507 -24.186
ltibia 11.9898
lfoot -10.447 3.29065
ltoes -11.9872
533
root -0.000381705 17.9257 -0.792533 1.62942 -7.62276 3.56822
lowerback -0.493268 -1.73816 -5.03319
upperback 0.0511094 -2.30302 2.84081
thorax 0.6462 -1.17804 5.74057
lowerneck -25.6936 1.8669 -9.40764
upperneck 1.55497 4.76404 5.39598
head 4.0554 2.6161 3.68937
rclavicle -2.01269e-014 1.35174e-014
rhumerus -33.6503 -6.37025 -75.1075
rradius 34.2711
rwrist 19.3999
rhand -21.6046 6.23785
rfingers 7.12502
rthumb 4.79053 -23.688
lclavicle -2.01269e-014 1.35174e-014
lhumerus 54.9587 6.77114 55.8952
lradius 96.9938
lwrist -4.20577
lhand -32.7994 6.96034
lfingers 7.12502
lthumb -6.02059 36.8548
rfemur -8.1643 6.60377 12.4006
rtibia 27.6424
rfoot -18.3102 -2.95633
rtoes 3.46211
lfemur 0.854325 -1.85778 -24.1721
ltibia 12.0083
lfoot -10.4678 3.24379
ltoes -11.7705
534
root -0.000359232 17.9255 -0.791967 1.60948 -7.63859 3.57092
lowerback -0.419505 -1.74339 -5.06878
upperback 0.00754776 -2.3132 2.84844
thorax 0.562954 -1.17959 5.77196
lowerneck -25.7731 1.88826 -9.33272
upperneck 1.64527 4.77723 5.37233
head 4.09628 2.62039 3.67479
rclavicle 1.09332e-015 -1.03368e-014
rhumerus -33.7096 -6.22272 -75.1274
rradius 34.3595
rwrist 19.1973
rhand -21.536 6.5154
rfingers 7.12502
rthumb 4.85679 -23.4089
lclavicle 1.09332e-015 -1.03368e-014
lhumerus 55.0687 6.93137 55.8237
lradius 96.9468
lwrist -4.27894
lhand -32.361 7.70508
lfingers 7.12502
lthumb -5.59724 37.6112
rfemur -8.13509 6.61738 12.399
rtibia 27.6286
rfoot -18.2853 -2.9671
rtoes 3.45501
lfemur 0.874763 -1.85499 -24.174
ltibia 12.0164
lfoot -10.4922 3.22583
ltoes -11.7996
535
root -0.000678056 17.9258 -0.790678 1.6029 -7.64597 3.57303
lowerback -0.415547 -1.74214 -5.08604
upperback 0.0149223 -2.31146 2.83025
thorax 0.568032 -1.17905 5.76274
lowerneck -25.85 1.91354 -9.08707
upperneck 1.5997 4.7598 5.16672
head 4.10353 2.6004 3.56934
rclavicle 7.25564e-015 -5.56597e-015
rhumerus -33.6445 -6.24818 -75.1762
rradius 34.3538
rwrist 19.1308
rhand -21.4892 6.6447
rfingers 7.12502
rthumb 4.90202 -23.2786
lclavicle 7.25564e-015 -5.56597e-015
lhumerus 55.2813 7.07065 55.7189
lradius 96.8957
lwrist -4.36157
lhand -32.7479 7.48303
lfingers 7.12502
lthumb -5.97079 37.3789
rfemur -8.12219 6.62226 12.3978
rtibia 27.6224
rfoot -18.2597 -2.9665
rtoes 3.48392
lfemur 0.887164 -1.83488 -24.1747
ltibia 12.015
lfoot -10.4974 3.21404
ltoes -12.0446
536
root 0.000227953 17.9255 -0.790197 1.61021 -7.6479 3.57722
lowerback -0.459813 -1.7285 -5.07003
upperback 0.0573884 -2.29089 2.78542
thorax 0.631381 -1.17155 5.70469
lowerneck -25.9427 1.9113 -8.98475
upperneck 1.47495 4.73399 5.16548
head 4.08099 2.59168 3.55054
rclavicle 9.98893e-015 2.14687e-014
rhumerus -33.5518 -6.40289 -75.2138
rradius 34.2995
rwrist 19.1889
rhand -21.5225 6.71041
rfingers 7.12502
rthumb 4.86987 -23.2136
lclavicle 9.98893e-015 2.14687e-014
lhumerus 55.5969 7.19834 55.608
lradius 96.7984
lwrist -4.34957
lhand -33.6353 6.17219
lfingers 7.12502
lthumb -6.82756 36.0421
rfemur -8.14086 6.61297 12.3879
rtibia 27.6338
rfoot -18.2519 -2.98578
rtoes 3.10671
lfemur 0.884207 -1.81879 -24.1804
ltibia 12.0022
lfoot -10.4754 3.21838
ltoes -12.1155
537
root 0.00109595 17.9252 -0.790301 1.60337 -7.62827 3.55285
lowerback -0.458186 -1.72672 -5.04701
upperback 0.090446 -2.2885 2.77725
thorax 0.663015 -1.17205 5.68247
lowerneck -26.0863 1.8963 -9.07028
upperneck 1.43414 4.73672 5.34897
head 4.08197 2.60771 3.6261
rclavicle -1.82882e-014 -7.95139e-015
rhumerus -33.5133 -6.40488 -75.2393
rradius 34.3343
rwrist 19.1434
rhand -21.7022 6.97832
rfingers 7.12502
rthumb 4.69632 -22.9496
lclavicle -1.82882e-014 -7.95139e-015
lhumerus 55.8435 7.36399 55.5563
lradius 96.7408
lwrist -4.31583
lhand -33.0991 6.81923
lfingers 7.12502
lthumb -6.30992 36.7052
rfemur -8.12893 6.62299 12.4175
rtibia 27.6461
rfoot -18.2533 -3.01041
rtoes 2.89312
lfemur 0.907301 -1.87624 -24.1615
ltibia 11.9892
lfoot -10.4694 3.25927
ltoes -11.8979
538
root 0.00230971 17.9242 -0.790138 1.6093 -7.60262 3.58324
lowerback -0.431264 -1.74586 -5.07552
upperback 0.0604002 -2.31517 2.77138
thorax 0.621413 -1.18346 5.69347
lowerneck -26.1894 1.90966 -9.04937
upperneck 1.49277 4.75473 5.35792
head 4.11366 2.61708 3.63087
rclavicle -2.59911e-014 1.27222e-014
rhumerus -33.5675 -6.36595 -75.2471
rradius 34.4241
rwrist 19.154
rhand -21.7638 7.17337
rfingers 7.12502
rthumb 4.6368 -22.7559
lclavicle -2.59911e-014 1.27222e-014
lhumerus 55.9937 7.53443 55.5221
lradius 96.6885
lwrist -4.3815
lhand -32.1229 7.85906
lfingers 7.12502
lthumb -5.36743 37.7711
rfemur -8.13502 6.58327 12.3772
rtibia 27.6601
rfoot -18.2908 -2.9665
rtoes 3.28734
lfemur 0.899123 -1.86619 -24.1998
ltibia 11.9968
lfoot -10.5045 3.23164
ltoes -11.9118
539
root 0.00328532 17.9246 -0.787946 1.61741 -7.60406 3.58143
lowerback -0.434738 -1.74426 -5.06394
upperback 0.0337435 -2.31308 2.7729
thorax 0.595151 -1.18087 5.68891
lowerneck -26.2336 1.91589 -9.09815
upperneck 1.52887 4.77699 5.40641
head 4.1274 2.63084 3.65794
rclavicle 2.78299e-014 -2.14687e-014
rhumerus -33.5792 -6.43899 -75.2102
rradius 34.4103
rwrist 19.2436
rhand -21.6767 6.90241
rfingers 7.12502
rthumb 4.7209 -23.025
lclavicle 2.78299e-014 -2.14687e-014
lhumerus 56.1529 7.65075 55.4699
lradius 96.6783
lwrist -4.41901
lhand -31.9046 8.27063
lfingers 7.12502
lthumb -5.1566 38.1879
rfemur -8.14388 6.56406 12.3709
rtibia 27.6663
rfoot -18.3283 -2.93152
rtoes 3.46271
lfemur 0.882388 -1.80876 -24.2011
ltibia 12.023
lfoot -10.4979 3.1757
ltoes -12.0779
540
root 0.0035157 17.924 -0.78734 1.61447 -7.63469 3.56997
lowerback -0.375875 -1.72934 -5.07569
upperback -0.0124833 -2.29593 2.78399
thorax 0.512965 -1.1686 5.71043
lowerneck -26.1508 1.9141 -9.21353
upperneck 1.41844 4.79045 5.56329
head 4.07429 2.64932 3.72407
rclavicle 6.80837e-015 -4.77083e-015
rhumerus -33.6333 -6.45568 -75.1813
rradius 34.394
rwrist 19.314
rhand -21.5877 6.59783
rfingers 7.12502
rthumb 4.80685 -23.3276
lclavicle 6.80837e-015 -4.77083e-015
lhumerus 56.3033 7.77801 55.3803
lradius 96.586
lwrist -4.37979
lhand -31.8759 8.25916
lfingers 7.12502
lthumb -5.12889 38.1771
rfemur -8.15194 6.55508 12.3765
rtibia 27.6802
rfoot -18.2932 -2.8914
rtoes 3.35024
lfemur 0.896916 -1.77703 -24.1959
ltibia 12.0124
lfoot -10.5106 3.18957
ltoes -12.1253
541
root 0.00285537 17.9233 -0.788493 1.59773 -7.66807 3.56931
lowerback -0.286799 -1.71249 -5.11334
upperback -0.0626787 -2.27748 2.79883
thorax 0.410701 -1.15499 5.75175
lowerneck -26.0269 1.89069 -9.3246
upperneck 1.23743 4.77397 5.69144
head 3.99617 2.65174 3.77515
rclavicle 2.54444e-014 -7.15625e-015
rhumerus -33.7255 -6.44868 -75.1515
rradius 34.4142
rwrist 19.3489
rhand -21.602 6.62165
rfingers 7.12502
rthumb 4.79313 -23.3041
lclavicle 2.54444e-014 -7.15625e-015
lhumerus 56.389 7.87502 55.3101
lradius 96.491
lwrist -4.52425
lhand -32.1619 8.04084
lfingers 7.12502
lthumb -5.40505 37.9519
rfemur -8.14664 6.60843 12.3794
rtibia 27.6888
rfoot -18.2992 -2.88037
rtoes 3.48484
lfemur 0.923539 -1.81624 -24.2002
ltibia 11.9864
lfoot -10.4879 3.2699
ltoes -12.0814
542
root 0.0035387 17.9235 -0.78693 1.56341 -7.67653 3.60769
lowerback -0.271355 -1.70768 -5.13697
upperback -0.0415421 -2.27142 2.77537
thorax 0.422977 -1.15285 5.7408
lowerneck -26.0883 1.86267 -9.35172
upperneck 1.173 4.7463 5.75068
head 3.98454 2.64389 3.79635
rclavicle -4.08006e-014 8.74653e-015
rhumerus -33.7127 -6.49155 -75.165
rradius 34.4253
rwrist 19.4724
rhand -21.585 6.64041
rfingers 7.12502
rthumb 4.8095 -23.285
lclavicle -4.08006e-014 8.74653e-015
lhumerus 56.5565 8.01783 55.2277
lradius 96.4912
lwrist -4.62061
lhand -32.4033 7.76711
lfingers 7.12502
lthumb -5.63814 37.6721
rfemur -8.11055 6.63046 12.3388
rtibia 27.6992
rfoot -18.3277 -2.87075
rtoes 3.69233
lfemur 0.966804 -1.83492 -24.2491
ltibia 11.9706
lfoot -10.461 3.27803
ltoes -12.2058
543
root 0.00439232 17.9235 -0.785447 1.56117 -7.66255 3.64182
lowerback -0.285992 -1.7139 -5.16843
upperback -0.0557423 -2.27893 2.74731
thorax 0.417637 -1.15605 5.72897
lowerneck -26.1371 1.87933 -9.22533
upperneck 1.20827 4.73793 5.69102
head 4.00719 2.63628 3.75838
rclavicle 3.598e-014 -1.82882e-014
rhumerus -33.7504 -6.49 -75.2102
rradius 34.431
rwrist 19.5671
rhand -21.6404 6.77338
rfingers 7.12502
rthumb 4.75597 -23.1532
lclavicle 3.598e-014 -1.82882e-014
lhumerus 56.7236 8.13793 55.14
lradius 96.3717
lwrist -5.08154
lhand -32.6128 7.62163
lfingers 7.12502
lthumb -5.8404 37.5211
rfemur -8.1194 6.6032 12.2958
rtibia 27.7145
rfoot -18.3273 -2.86606
rtoes 3.62554
lfemur 0.987173 -1.83963 -24.2893
ltibia 11.926
lfoot -10.4212 3.26118
ltoes -12.5453
544
root 0.00469933 17.9229 -0.785408 1.56912 -7.64872 3.66498
lowerback -0.291588 -1.70523 -5.19563
upperback -0.0946746 -2.26714 2.72536
thorax 0.379107 -1.14787 5.72223
lowerneck -26.1518 1.89388 -9.08242
upperneck 1.27589 4.72193 5.59368
head 4.03714 2.62149 3.70471
rclavicle -1.16786e-014 -2.62396e-014
rhumerus -33.8647 -6.4423 -75.2587
rradius 34.5153
rwrist 19.5041
rhand -21.7131 6.75738
rfingers 7.12502
rthumb 4.68583 -23.1708
lclavicle -1.16786e-014 -2.62396e-014
lhumerus 56.839 8.17186 55.021
lradius 95.9917
lwrist -6.35206
lhand -33.4017 7.37023
lfingers 7.12502
lthumb -6.60201 37.2473
rfemur -8.13784 6.59383 12.2688
rtibia 27.7351
rfoot -18.3574 -2.87554
rtoes 3.45241
lfemur 0.983363 -1.82595 -24.3148
ltibia 11.8947
lfoot -10.3934 3.2446
ltoes -12.6227
